<svg xmlns="http://www.w3.org/2000/svg" xml:space="preserve" width="849.179" height="849.212" viewBox="0 0 224.679 224.687"><path d="M106.146 246.218c-1.134-1.183-1.806-3.135-3.496-10.152-6.356-26.395-11.842-38.663-21.491-48.061-8.58-8.356-19.487-13.239-42.368-18.966-6.817-1.706-12.902-3.365-13.523-3.687-2.65-1.375-3.129-6.06-.849-8.314 1.22-1.207 3.22-1.87 12.629-4.193 44.233-10.915 53.972-20.71 65.29-65.666 3.15-12.517 3.727-13.536 7.651-13.536 3.97 0 4.474.925 7.914 14.52 3.38 13.358 5.406 19.86 8.294 26.617 5.608 13.12 13.52 21.733 25.47 27.731 7.762 3.895 21.184 8.208 36.102 11.6 5.099 1.16 6.598 1.72 7.779 2.9 2.035 2.034 2.04 5.13.011 7.288-1.28 1.361-2.738 1.86-12.402 4.244-33.765 8.33-46.362 16.199-55.227 34.5-4.107 8.481-9.037 24.156-11.88 37.775-1.079 5.168-2.577 6.866-6.06 6.866-1.98 0-2.705-.277-3.844-1.466m88.92-122.717c-2.215-.964-2.85-2.328-5.149-11.086-5.63-21.443-10.945-26.593-32.99-31.97-8.363-2.041-10.02-3.152-10.02-6.721 0-3.666 1.644-4.98 8.297-6.627 16.27-4.029 23.034-7.5 27.517-14.119 2.882-4.254 4.986-9.64 7.408-18.96 1.82-7.008 2.323-8.301 3.71-9.555 2.164-1.956 4.703-1.956 6.875 0 1.39 1.25 1.858 2.44 3.398 8.626 3.384 13.597 6.825 20.667 12.107 24.874 4.766 3.796 9.958 5.765 26.098 9.896 3.296.844 5.323 3.02 5.323 5.714 0 3.794-1.258 4.63-10.568 7.016-13.348 3.421-18.93 6.07-23.5 11.154-4.08 4.537-7.643 13.04-9.984 23.828-1.183 5.45-2.025 7.034-4.223 7.952-2.154.9-2.179.9-4.299-.022" style="fill:#fff" transform="translate(-22.961 -22.996)"/></svg>
